<svg xmlns="http://www.w3.org/2000/svg" xmlns:xlink="http://www.w3.org/1999/xlink" xmlns:inkscape="http://www.inkscape.org/namespaces/inkscape" version="1.1" width="1080" height="1080" viewBox="0 0 1080 1080">
<defs>
<clipPath id="clip_1">
<path transform="matrix(1,0,0,-1,0,1080)" d="M0 1080H1080V0H0Z"/>
</clipPath>
</defs>
<g clip-path="url(#clip_1)">
<path transform="matrix(1,0,0,-1,780.5438,634.32888)" d="M0 0H-424.319C-424.358 .234-424.397 .467-424.436 .701-421.061 1.18-417.698 1.778-414.309 2.108-410.082 2.52-405.811 3.129-401.602 2.889-396.266 2.585-395.475 5.097-395.481 9.693-395.592 88.013-395.536 166.334-395.653 244.654-395.659 248.293-394.572 250.303-391.441 252.137-370.519 264.395-349.725 276.871-328.852 289.215-327.439 290.05-325.946 291.9-324.267 290.966-322.557 290.015-323.423 287.794-323.423 286.148-323.391 196.166-323.403 106.183-323.399 16.201-323.399 5.404-323.92 6.492-313.933 7.009-294.889 7.993-275.827 7.48-256.783 8.195-251.886 8.378-250.795 10.062-250.807 14.604-250.926 57.465-250.877 100.328-250.811 143.19-250.761 175.807-250.685 208.425-250.427 241.04-250.395 245.181-251.628 247.613-255.303 249.677-267.931 256.77-280.316 264.293-292.889 271.485-295.695 273.09-296.88 275.017-296.869 278.251-296.798 298.579-296.846 318.908-296.934 339.236-296.947 342.158-296.037 344.188-293.572 345.987-271.947 361.766-250.419 377.678-228.839 393.519-227.884 394.22-227.004 395.75-225.656 395.065-224.122 394.285-224.804 392.516-224.819 391.199-225.055 369.782-225.542 348.367-225.596 326.95-225.726 274.474-225.098 221.989-225.837 169.522-226.56 118.166-226.437 66.816-226.589 15.463-226.61 8.451-226.583 8.456-219.534 8.5-215.439 8.525-211.324 8.797-207.255 8.477-202.702 8.119-201.185 9.82-201.212 14.366-201.365 40.052-201.286 65.739-201.283 91.425-201.282 100.723-201.105 110.025-201.34 119.316-201.447 123.531-200.257 125.789-195.94 127.205-183.533 131.273-171.348 136.013-158.983 140.218-155.374 141.446-154.269 143.333-154.283 147.076-154.414 184.581-154.37 222.087-154.336 259.593-154.334 261.263-155.14 263.5-153.578 264.471-151.886 265.522-150.476 263.485-149.081 262.643-132.904 252.883-116.805 242.992-100.596 233.286-97.922 231.685-97.036 229.741-97.044 226.758-97.116 198.865-97.141 170.972-97.023 143.079-97.007 139.076-98.005 138.052-101.919 139.506-109.732 142.409-117.722 144.831-125.549 147.699-129.058 148.984-130.253 148.431-130.195 144.453-129.792 117.205-129.517 89.956-129.302 62.706-129.171 46.161-129.111 29.614-129.265 13.069-129.303 9.055-128.201 7.549-123.978 7.468-107.616 7.152-91.26 6.532-74.906 5.91-69.568 5.707-64.275 4.91-58.9 4.906-55.137 4.903-54.039 6.212-54.059 9.868-54.184 32.875-54.125 55.883-54.116 78.891-54.113 85.626-54.094 85.635-47.696 83.514-43.665 82.178-39.68 80.684-35.606 79.495-32.057 78.46-30.718 76.502-30.751 72.66-30.932 51.544-30.717 30.426-30.929 9.311-30.976 4.687-29.808 3.03-24.9 2.945-16.616 2.802-8.349 1.708-.075 1.015-.05 .677-.025 .338 0 0" fill="#1b224e"/>
<path transform="matrix(1,0,0,-1,854.396,750.1732)" d="M0 0C0-13.552 .078-27.104-.052-40.655-.087-44.258 1.051-45.777 4.839-45.644 11.45-45.413 18.079-45.732 24.692-45.536 38.598-45.124 50.552-40.637 59.036-28.861 67.247-17.466 68.049-4.549 66.786 8.68 64.948 27.945 50.441 42.433 31.347 44.868 22.694 45.972 14.029 45.109 5.389 45.576 1.255 45.799-.138 44.325-.077 40.181 .122 26.79-.002 13.394 0 0M-48.533 .293C-48.534 28.176-48.538 56.059-48.53 83.942-48.528 90.565-48.509 90.58-41.647 90.582-18.803 90.589 4.04 90.627 26.884 90.574 68.455 90.477 103.761 61.659 111.532 20.773 117.795-12.178 111.223-41.969 86.83-66.274 70.717-82.329 51.008-90.501 28.16-90.587 4.529-90.677-19.104-90.506-42.734-90.703-47.303-90.741-48.647-89.289-48.62-84.774-48.447-56.419-48.532-28.063-48.533 .293" fill="#1b224e"/>
<path transform="matrix(1,0,0,-1,604.7676,750.66799)" d="M0 0C0-27.888 .009-55.776-.007-83.664-.011-90.013-.119-90.105-6.257-90.114-18.075-90.131-29.896-89.957-41.709-90.201-46.048-90.291-47.506-88.827-47.471-84.525-47.316-65.461-47.398-46.396-47.412-27.331-47.417-21.147-47.441-21.133-53.785-21.129-66.548-21.12-79.313-21.243-92.073-21.057-95.938-21-97.289-22.196-97.256-26.158-97.094-45.536-97.304-64.918-97.097-84.295-97.048-88.848-98.497-90.306-103.033-90.206-115.002-89.943-126.983-90-138.956-90.181-142.837-90.239-144.144-88.922-144.138-85.02-144.046-27.984-144.044 29.053-144.141 86.089-144.148 90.116-142.609 91.189-138.847 91.137-126.717 90.971-114.58 90.924-102.451 91.157-98.188 91.239-97.085 89.62-97.118 85.621-97.272 67.03-97.067 48.436-97.27 29.846-97.318 25.47-96.283 23.727-91.537 23.838-78.624 24.14-65.696 24.081-52.779 23.861-48.649 23.791-47.293 25.101-47.333 29.253-47.509 47.686-47.419 66.121-47.4 84.555-47.393 91.054-47.359 91.069-40.75 91.076-29.247 91.088-17.745 91.092-6.242 91.074-.121 91.065-.011 90.969-.007 84.609 .009 56.406 0 28.203 0 0" fill="#1b224e"/>
<path transform="matrix(1,0,0,-1,199.8463,716.3635)" d="M0 0C-.287-.002-.573-.005-.86-.007-6.203-18.245-11.552-36.482-16.886-54.722-17.809-57.881-15.537-57.626-13.642-57.63-4.825-57.651 3.994-57.531 12.808-57.689 16.544-57.756 17.024-56.375 15.989-53.127 13.409-45.033 11.086-36.856 8.645-28.718 5.772-19.142 2.882-9.572 0 0M-.208 56.773C7.671 56.772 15.554 56.629 23.428 56.837 26.988 56.932 28.77 55.704 29.898 52.245 41.033 18.103 52.318-15.99 63.562-50.097 71.058-72.835 78.556-95.571 86.051-118.309 88.061-124.407 88.055-124.419 81.45-124.421 68.213-124.427 54.975-124.33 41.74-124.482 38.31-124.521 36.613-123.33 35.747-119.996 34.202-114.055 32.13-108.252 30.573-102.315 29.765-99.235 28.356-97.902 25.03-97.928 8.17-98.057-8.693-98.061-25.553-97.924-28.89-97.896-30.317-99.258-31.135-102.297-32.73-108.226-34.741-114.043-36.326-119.974-37.197-123.234-38.841-124.529-42.311-124.487-55.861-124.323-69.415-124.434-82.967-124.418-88.665-124.411-88.758-124.29-86.979-118.893-73.664-78.504-60.33-38.12-47.012 2.268-41.586 18.723-36.096 35.157-30.841 51.665-29.659 55.377-27.949 57.032-23.842 56.866-15.975 56.548-8.087 56.774-.208 56.773" fill="#1b224e"/>
<path transform="matrix(1,0,0,-1,705.8707,716.4894)" d="M0 0C-.301-.01-.602-.021-.903-.031-1.942-3.477-2.996-6.919-4.017-10.37-8.212-24.553-12.431-38.73-16.549-52.936-17.094-54.816-18.62-57.516-14.497-57.507-5.05-57.489 4.396-57.495 13.842-57.498 16.173-57.499 16.909-56.511 16.217-54.211 10.782-36.149 5.399-18.072 0 0M-.292 56.899C7.587 56.898 15.47 56.755 23.344 56.963 26.905 57.058 28.686 55.829 29.814 52.371 40.949 18.229 52.234-15.864 63.478-49.971 70.974-72.709 78.473-95.445 85.967-118.184 87.977-124.282 87.971-124.293 81.366-124.296 68.129-124.301 54.891-124.204 41.656-124.356 38.226-124.396 36.529-123.204 35.663-119.87 34.119-113.929 32.046-108.126 30.489-102.189 29.681-99.109 28.272-97.777 24.946-97.802 8.086-97.931-8.777-97.935-25.637-97.798-28.974-97.77-30.401-99.132-31.219-102.171-32.814-108.1-34.825-113.917-36.41-119.848-37.281-123.109-38.925-124.403-42.395-124.361-55.945-124.197-69.499-124.308-83.051-124.292-88.749-124.285-88.842-124.164-87.062-118.768-73.747-78.378-60.414-37.994-47.096 2.394-41.67 18.849-36.18 35.283-30.924 51.791-29.743 55.503-28.033 57.158-23.926 56.992-16.059 56.674-8.171 56.9-.292 56.899" fill="#1b224e"/>
<path transform="matrix(1,0,0,-1,361.3731,782.1197)" d="M0 0C7.517 26.374 14.685 51.494 21.835 76.619 25.671 90.097 29.632 103.544 33.208 117.091 34.35 121.417 36.415 122.731 40.808 122.635 54.036 122.346 67.275 122.542 80.51 122.526 86.342 122.519 86.528 122.294 84.706 116.655 72.6 79.193 60.463 41.741 48.346 4.283 42.19-14.746 35.942-33.746 29.995-52.839 28.67-57.092 26.826-58.885 22.104-58.785 7.143-58.466-7.831-58.552-22.796-58.745-26.609-58.794-28.365-57.468-29.524-53.857-47.863 3.27-66.299 60.367-84.812 117.438-86.162 121.6-84.98 122.642-80.871 122.592-67.165 122.424-53.455 122.397-39.751 122.612-35.832 122.673-34.286 121.168-33.273 117.543-22.713 79.785-11.998 42.07-1.322 4.344-1.025 3.294-.688 2.255 0 0" fill="#1b224e"/>
</g>
</svg>
